<svg width="26" height="27" viewBox="0 0 26 27" fill="none" xmlns="http://www.w3.org/2000/svg">
<g clip-path="url(#clip0_28_6)">
<g clip-path="url(#clip1_28_6)">
<path d="M1.35449 16.0834L4.87532 19.6043L8.39615 16.0834" stroke="#E7EBF3" stroke-width="1.5" stroke-linecap="round" stroke-linejoin="round"/>
<path d="M9.28269 21.4256C10.9678 22.2327 12.8696 22.4703 14.7014 22.1025C16.5333 21.7348 18.196 20.7817 19.4391 19.3868C20.6822 17.9919 21.4382 16.2308 21.5934 14.3688C21.7485 12.5069 21.2943 10.6449 20.2992 9.06353C19.3042 7.48215 17.8221 6.26699 16.0764 5.60115C14.3306 4.93531 12.4158 4.85487 10.6203 5.37193C8.8249 5.88899 7.24614 6.97555 6.12192 8.4679C4.99771 9.96025 4.38895 11.7775 4.38737 13.6459L4.87488 19.0626" stroke="#E7EBF3" stroke-width="1.5" stroke-linecap="round" stroke-linejoin="round"/>
</g>
<path d="M13 9.31261V14.1876L17.3333 15.8126" stroke="#E7EBF3" stroke-width="1.5" stroke-linecap="round" stroke-linejoin="round"/>
</g>
<defs>
<clipPath id="clip0_28_6">
<rect width="26" height="26" fill="white" transform="translate(0 0.645935)"/>
</clipPath>
<clipPath id="clip1_28_6">
<rect width="22.981" height="22.981" fill="white" transform="translate(-3.25 13.6459) rotate(-45)"/>
</clipPath>
</defs>
</svg>
